<svg width="29" height="16" viewBox="0 0 29 16" fill="none" xmlns="http://www.w3.org/2000/svg">
<path d="M1.28516 7C0.732872 7 0.285156 7.44772 0.285156 8C0.285156 8.55228 0.732872 9 1.28516 9V7ZM27.9923 8.70711C28.3828 8.31658 28.3828 7.68342 27.9923 7.29289L21.6283 0.928932C21.2378 0.538408 20.6046 0.538408 20.2141 0.928932C19.8236 1.31946 19.8236 1.95262 20.2141 2.34315L25.8709 8L20.2141 13.6569C19.8236 14.0474 19.8236 14.6805 20.2141 15.0711C20.6046 15.4616 21.2378 15.4616 21.6283 15.0711L27.9923 8.70711ZM1.28516 9H27.2852V7H1.28516V9Z" fill="#232536"/>
</svg>
