<svg width="29" height="16" viewBox="0 0 29 16" fill="none" xmlns="http://www.w3.org/2000/svg">
<path d="M27.2852 9C27.8374 9 28.2852 8.55228 28.2852 8C28.2852 7.44772 27.8374 7 27.2852 7L27.2852 9ZM0.57805 7.29289C0.187525 7.68342 0.187525 8.31658 0.578049 8.7071L6.94201 15.0711C7.33253 15.4616 7.9657 15.4616 8.35622 15.0711C8.74675 14.6805 8.74675 14.0474 8.35622 13.6569L2.69937 8L8.35622 2.34314C8.74675 1.95262 8.74675 1.31945 8.35622 0.928931C7.9657 0.538406 7.33254 0.538406 6.94201 0.92893L0.57805 7.29289ZM27.2852 7L1.28516 7L1.28516 9L27.2852 9L27.2852 7Z" fill="#232536"/>
</svg>
